<svg version="1.1" xmlns="http://www.w3.org/2000/svg" xmlns:xlink="http://www.w3.org/1999/xlink" x="0px" y="0px"
	 viewBox="0 0 141.9 77.4" style="enable-background:new 0 0 141.9 77.4;" xml:space="preserve">
<path style="fill:#E2231B;" d="M63.2,32.5c1.9,0,3.5,1.6,3.5,3.5c0,1.9-1.6,3.5-3.5,3.5c-1.9,0-3.5-1.6-3.5-3.5C59.7,34,61.2,32.5,63.2,32.5
	 M141.9,44.3c-5.5,5.5-22.5,20.4-27.1,33l-5.6-1.4c1.8-5.2,7.3-13.3,13.5-19.6c-1.3,0.5-2.7,0.7-3.8,0.7c-1.7,0-3-0.5-3.7-1.4
	c-0.6-0.7-0.8-1.6-0.8-2.6c0-0.2,0-0.5,0-0.7c-5.4,3.3-9.7,4.8-14,4.8c-3.3,0-6.1-1.4-7.4-4c-5.4,2.7-10.5,4-14.8,4
	c-4,0-7.2-1.6-8.7-4.5c-5.4,3-10,4.5-13.7,4.5c-2.1,0-3.8-0.6-4.9-1.7c-0.8-0.8-1.2-1.9-1.3-3.2c-3.5,2.3-8.5,4.9-13.7,4.9
	c-5.3,0-8.9-1.8-11.6-3.6c-4.4,2.4-9.3,3.6-14.4,3.6C6.3,57,0,55.4,0,49.8c0-4.5,4.7-7.5,10.9-7.5c5.3,0,10.5,2.2,13.7,4.6
	c3.1-2.4,6.3-5.8,10-10.7c-0.8,0-1.6,0.1-2.4,0.1c-7.2,0-13.3-2.1-16.6-5.9c-1.8-2-2.6-4.4-2.6-6.9C13,13.4,25.7,5.6,36.9,4.4
	c0.7,1.7,1.4,3,2.1,4.5c-11,1.3-20.2,7.8-20.2,14.2c0,4.2,4.7,8.4,14.7,8.4c1.7,0,3.4-0.2,5.1-0.4C47.4,18.9,60.9,0,72.5,0
	c3.4,0,5.2,2.1,5.2,4.9c0,5.8-4.9,11.9-8.2,15.2c-5.1,5.1-14.2,12.7-27,15.2c-5,6.9-9.1,11.5-13.2,14.8c2.5,1.3,4.8,2.2,7.6,2.2
	c6.9,0,13.6-6.3,18.8-11.6l0.2-0.2l4.1,3.2l-0.2,0.2c-2.3,2.6-4.4,5.4-4.4,7c0,1.2,1,1.4,1.9,1.4c2.6,0,6.7-1.7,11.5-4.6v0
	c0.5-11.8,16.7-29.9,26.4-29.9c2.8,0,4.4,1.4,4.4,3.8c0,5.9-10.2,18.6-25.1,28.3v0c0.8,1.7,2.5,2.4,5.5,2.4c2.3,0,6.9-1,12.4-3.9
	c0.6-6.1,4.1-12.7,8.5-17.4c4.4-4.7,9.4-7.7,13.6-7.7c2.6,0,4.2,1.5,4.2,3.7c0,5.2-6,14-20.4,23.2c0.6,1.2,1.9,2,3.8,2
	c4.3,0,11.9-4.6,17.8-10.2l4.2,3.3c-1.8,2.2-3.6,4.6-3.6,6c0,0.4,0.3,0.8,1,0.8c4.4,0,11.2-5.7,16.3-10.8L141.9,44.3z M47,28.9
	c6.4-2,12.4-6.3,16.9-10.8c4.2-4.1,7.5-9,7.5-11.5c0-0.6-0.4-0.9-0.9-0.9c-1.9,0-5.6,2.6-10.5,7.5C56.2,17.1,51.7,22.4,47,28.9
	 M19.8,50c-2.4-1.6-6-3.1-9.2-3.1c-3.1,0-5.2,1.2-5.2,2.8c0,1.8,2.4,2.6,5.2,2.6C13.9,52.3,16.9,51.4,19.8,50 M74.4,44.1
	c8.9-6.7,18.2-16.5,19.2-20.5c0-0.1,0.1-0.3,0.1-0.4c0-0.3-0.2-0.5-0.5-0.5C90.4,22.7,77.3,34.7,74.4,44.1 M98,45.2
	c0.8-0.6,1.7-1.3,2.5-1.9c6.4-5.1,11.3-10.7,12.2-13.8c0-0.1,0.1-0.4,0.1-0.6c0-0.3-0.2-0.5-0.4-0.5c-2.9,0-12.3,9.4-14.6,17v0
	L98,45.2z"/>
</svg>
